<?xml version="1.0" encoding="UTF-8" standalone="no"?>
<!-- Created with Inkscape (http://www.inkscape.org/) -->

<svg
   version="1.1"
   id="svg1"
   width="985.54657"
   height="248.14821"
   viewBox="0 0 985.54656 248.14821"
   sodipodi:docname="kostem.svg"
   inkscape:version="1.4 (e7c3feb100, 2024-10-09)"
   xmlns:inkscape="http://www.inkscape.org/namespaces/inkscape"
   xmlns:sodipodi="http://sodipodi.sourceforge.net/DTD/sodipodi-0.dtd"
   xmlns="http://www.w3.org/2000/svg"
   xmlns:svg="http://www.w3.org/2000/svg">
  <defs
     id="defs1" />
  <sodipodi:namedview
     id="namedview1"
     pagecolor="#ffffff"
     bordercolor="#666666"
     borderopacity="1.0"
     inkscape:showpageshadow="2"
     inkscape:pageopacity="0.0"
     inkscape:pagecheckerboard="0"
     inkscape:deskcolor="#d1d1d1"
     inkscape:zoom="0.41699219"
     inkscape:cx="851.33489"
     inkscape:cy="242.21077"
     inkscape:window-width="1920"
     inkscape:window-height="1043"
     inkscape:window-x="0"
     inkscape:window-y="0"
     inkscape:window-maximized="1"
     inkscape:current-layer="g1" />
  <g
     inkscape:groupmode="layer"
     inkscape:label="Image"
     id="g1"
     transform="translate(207.04778,1347.1961)">
    <path
       style="fill:#b9b9b9;fill-opacity:1"
       d="m 18.04087,1812.5562 c 4.7e-4,-15.95 0.13854,-22.3349 0.30682,-14.1888 0.16828,8.1461 0.16789,21.1961 -8.6e-4,29 -0.16875,7.8039 -0.30644,1.1388 -0.30596,-14.8112 z m 52.43106,12.75 c -1.24387,-1.586 -1.2085,-1.6214 0.37755,-0.3775 1.66575,1.3063 2.19548,2.1275 1.37245,2.1275 -0.20766,0 -0.99516,-0.7875 -1.75,-1.75 z m 49.91107,-0.9884 c 2.90594,-0.2026 7.40594,-0.2005 10,0 2.59407,0.2052 0.21648,0.371 -5.28352,0.3684 -5.5,0 -7.62241,-0.1705 -4.71648,-0.3732 z m 49.6082,-17.2616 c 0,-7.425 0.15743,-10.4625 0.34984,-6.75 0.1924,3.7125 0.1924,9.7875 0,13.5 -0.19241,3.7125 -0.34984,0.675 -0.34984,-6.75 z m 59.60824,7.6225 c 0,-0.2077 0.7875,-0.9952 1.75,-1.75 1.5861,-1.2439 1.6215,-1.2085 0.3776,0.3775 -1.3064,1.6658 -2.1276,2.1955 -2.1276,1.3725 z m 90.079,-1.2058 c 0.048,-1.165 0.2849,-1.4019 0.6042,-0.6042 0.2888,0.7219 0.2533,1.5844 -0.079,1.9167 -0.3323,0.3323 -0.5686,-0.2583 -0.5252,-1.3125 z m 0,-6 c 0.048,-1.165 0.2849,-1.4019 0.6042,-0.6042 0.2888,0.7219 0.2533,1.5844 -0.079,1.9167 -0.3323,0.3323 -0.5686,-0.2583 -0.5252,-1.3125 z m -77.579,-5.4167 c 3.2656,-3.3 6.1624,-6 6.4374,-6 0.275,0 -2.1718,2.7 -5.4374,6 -3.2655,3.3 -6.1624,6 -6.4374,6 -0.275,0 2.1719,-2.7 5.4374,-6 z m 38.579,0.4167 c 0.048,-1.165 0.2849,-1.4019 0.6042,-0.6042 0.2888,0.7219 0.2533,1.5844 -0.079,1.9167 -0.3323,0.3323 -0.5686,-0.2583 -0.5252,-1.3125 z M 120.383,1796.3178 c 2.90594,-0.2026 7.40594,-0.2005 10,0 2.59407,0.2052 0.21648,0.371 -5.28352,0.3684 -5.5,0 -7.62241,-0.1705 -4.71648,-0.3732 z m 170.96644,0.076 c 0.6875,-0.2774 1.8125,-0.2774 2.5,0 0.6875,0.2775 0.125,0.5044 -1.25,0.5044 -1.375,0 -1.9375,-0.2269 -1.25,-0.5044 z M -66.13149,1694.3632 c 0.97297,-0.2535 2.32297,-0.2368 3,0.037 0.67704,0.2739 -0.11903,0.4814 -1.76903,0.461 -1.65,-0.02 -2.20393,-0.2445 -1.23097,-0.4981 z m 17.48097,0.031 c 0.6875,-0.2774 1.8125,-0.2774 2.5,0 0.6875,0.2775 0.125,0.5044 -1.25,0.5044 -1.375,0 -1.9375,-0.2269 -1.25,-0.5044 z m -238.5,-3.0767 c 3.1625,-0.1984 8.3375,-0.1984 11.5,0 3.1625,0.1985 0.575,0.3609 -5.75,0.3609 -6.325,0 -8.9125,-0.1624 -5.75,-0.3609 z m 112.95625,0 c 3.68844,-0.1919 9.98844,-0.1932 14,0 4.01156,0.1903 0.99375,0.3473 -6.70625,0.3489 -7.7,0 -10.98219,-0.1542 -7.29375,-0.346 z m 450.04371,0 c 3.1625,-0.1984 8.3375,-0.1984 11.5,0 3.1625,0.1985 0.575,0.3609 -5.75,0.3609 -6.325,0 -8.9125,-0.1624 -5.75,-0.3609 z m 139.5,-0.01 c 16.6375,-0.154 43.8625,-0.154 60.5,0 16.6375,0.1539 3.025,0.2799 -30.25,0.2799 -33.275,0 -46.8875,-0.126 -30.25,-0.2799 z m 136.5366,0.01 c 3.1825,-0.199 8.1325,-0.1972 11,0 2.8674,0.2014 0.2634,0.3642 -5.7866,0.362 -6.05,0 -8.396,-0.167 -5.2134,-0.3661 z m 74.9936,0 c 2.6291,-0.2067 6.6791,-0.2042 9,0.01 2.3209,0.2097 0.1698,0.3788 -4.7802,0.3758 -4.95,0 -6.8489,-0.1747 -4.2198,-0.3813 z m 72.9698,0 c 3.1625,-0.1984 8.3375,-0.1984 11.5,0 3.1625,0.1985 0.575,0.3609 -5.75,0.3609 -6.325,0 -8.9125,-0.1624 -5.75,-0.3609 z m -437.7838,-62.761 c 2e-4,-29.7 0.1277,-41.7057 0.2833,-26.6794 0.1556,15.0263 0.1555,39.3263 -3e-4,54 -0.1558,14.6737 -0.2831,2.3794 -0.283,-27.3206 z m -79.9662,49.5 c 0.9955,-1.1 2.035,-2 2.31,-2 0.275,0 -0.3145,0.9 -1.31,2 -0.9954,1.1 -2.0349,2 -2.3099,2 -0.275,0 0.3145,-0.9 1.3099,-2 z M 5.59948,1675.679 c 0,-0.2077 0.7875,-0.9952 1.75,-1.75 1.58606,-1.2439 1.62143,-1.2085 0.37756,0.3775 -1.30637,1.6658 -2.12756,2.1955 -2.12756,1.3725 z m 104.25,-12.368 c 5.3625,-0.1798 14.1375,-0.1798 19.5,0 5.3625,0.1798 0.975,0.3269 -9.75,0.3269 -10.725,0 -15.1125,-0.1471 -9.75,-0.3269 z m -34.37755,-16.0045 c -1.24387,-1.586 -1.2085,-1.6214 0.37755,-0.3775 0.9625,0.7548 1.75,1.5423 1.75,1.75 0,0.823 -0.82118,0.2933 -2.12755,-1.3725 z m -19.09601,-3.9835 c 2.35203,-0.2112 5.95203,-0.2082 8,0.01 2.04796,0.2149 0.12356,0.3877 -4.27644,0.3841 -4.4,0 -6.0756,-0.1794 -3.72356,-0.3907 z m -194.4483,-24.7665 c 0.004,-3.85 0.18518,-5.3024 0.40166,-3.2277 0.21648,2.0748 0.21285,5.2248 -0.008,7 -0.22091,1.7753 -0.39802,0.078 -0.39359,-3.7723 z m 124.86681,4 c 0.0204,-1.65 0.2445,-2.2039 0.49804,-1.2309 0.25355,0.9729 0.23687,2.3229 -0.0371,3 -0.27392,0.677 -0.48137,-0.1191 -0.46099,-1.7691 z m 515.09111,-4 c 0.01,-2.75 0.2017,-3.7563 0.4315,-2.2362 0.2299,1.52 0.2237,3.77 -0.014,5 -0.2374,1.2299 -0.4255,-0.014 -0.4179,-2.7638 z m -515.05406,-3.5 c 0,-1.925 0.2058,-2.7125 0.45733,-1.75 0.25153,0.9625 0.25153,2.5375 0,3.5 -0.25153,0.9625 -0.45733,0.175 -0.45733,-1.75 z m -12.35955,-34.75 c -1.24387,-1.586 -1.2085,-1.6214 0.37755,-0.3775 1.66575,1.3063 2.19548,2.1275 1.37245,2.1275 -0.20766,0 -0.99516,-0.7875 -1.75,-1.75 z m -35.12245,-9.9123 c 0.6875,-0.2774 1.8125,-0.2774 2.5,0 0.6875,0.2775 0.125,0.5044 -1.25,0.5044 -1.375,0 -1.9375,-0.2269 -1.25,-0.5044 z m 7,0 c 0.6875,-0.2774 1.8125,-0.2774 2.5,0 0.6875,0.2775 0.125,0.5044 -1.25,0.5044 -1.375,0 -1.9375,-0.2269 -1.25,-0.5044 z m -66.25,-7.3377 c 0.99549,-1.1 2.03498,-2 2.30998,-2 0.275,0 -0.31449,0.9 -1.30998,2 -0.99548,1.1 -2.03497,2 -2.30997,2 -0.275,0 0.31449,-0.9 1.30997,-2 z m -166.75,-17.7372 c 2.8875,-0.202 7.6125,-0.202 10.5,0 2.8875,0.202 0.525,0.3673 -5.25,0.3673 -5.775,0 -8.1375,-0.1653 -5.25,-0.3673 z m 110.54159,-0.01 c 3.73537,-0.1929 9.58537,-0.1915 13,0 3.41463,0.1947 0.35841,0.3525 -6.79159,0.3508 -7.15,0 -9.94378,-0.161 -6.20841,-0.354 z m 100.45841,-52.9198 c 0.6875,-0.2774 1.8125,-0.2774 2.5,0 0.6875,0.2775 0.125,0.5044 -1.25,0.5044 -1.375,0 -1.9375,-0.2269 -1.25,-0.5044 z m 32,0 c 0.6875,-0.2774 1.8125,-0.2774 2.5,0 0.6875,0.2775 0.125,0.5044 -1.25,0.5044 -1.375,0 -1.9375,-0.2269 -1.25,-0.5044 z m 12.0625,-1.0208 c 0.72188,-0.2889 1.58438,-0.2533 1.91667,0.079 0.33229,0.3322 -0.25833,0.5686 -1.3125,0.5252 -1.16494,-0.048 -1.4019,-0.285 -0.60417,-0.6042 z m 454.99996,-3 c 0.7219,-0.2889 1.5844,-0.2533 1.9167,0.079 0.3323,0.3322 -0.2583,0.5686 -1.3125,0.5252 -1.1649,-0.048 -1.4019,-0.285 -0.6042,-0.6042 z m 40,0 c 0.7219,-0.2889 1.5844,-0.2533 1.9167,0.079 0.3323,0.3322 -0.2583,0.5686 -1.3125,0.5252 -1.1649,-0.048 -1.4019,-0.285 -0.6042,-0.6042 z m -699.40747,-68.5669 -1.90499,-2.25 2.25,1.905 c 2.11445,1.7902 2.70524,2.595 1.90499,2.595 -0.18976,0 -1.20226,-1.0125 -2.25,-2.25 z m 542.34497,-67.4123 c 0.6875,-0.2774 1.8125,-0.2774 2.5,0 0.6875,0.2775 0.125,0.5044 -1.25,0.5044 -1.375,0 -1.9375,-0.2269 -1.25,-0.5044 z m -245.34497,-7.5877 -1.90499,-2.25 2.25,1.905 c 1.2375,1.0478 2.25,2.0603 2.25,2.25 0,0.8003 -0.80479,0.2095 -2.59501,-1.905 z m 264.59497,-2.25 c 1.2918,-1.375 2.5737,-2.5 2.8487,-2.5 0.275,0 -0.5569,1.125 -1.8487,2.5 -1.2917,1.375 -2.5736,2.5 -2.8486,2.5 -0.275,0 0.5569,-1.125 1.8486,-2.5 z m 113.2691,-22.193 c 0.9729,-0.2535 2.3229,-0.2368 3,0.037 0.677,0.2739 -0.1191,0.4814 -1.7691,0.461 -1.65,-0.02 -2.2039,-0.2445 -1.2309,-0.4981 z m 8,0 c 0.9729,-0.2535 2.3229,-0.2368 3,0.037 0.677,0.2739 -0.1191,0.4814 -1.7691,0.461 -1.65,-0.02 -2.2039,-0.2445 -1.2309,-0.4981 z m -561.39661,-18.057 c -1.24387,-1.586 -1.2085,-1.6214 0.37755,-0.3775 0.9625,0.7548 1.75,1.5423 1.75,1.75 0,0.823 -0.82118,0.2933 -2.12755,-1.3725 z m 113.12755,-1.75 c 1.29175,-1.375 2.57363,-2.5 2.84863,-2.5 0.275,0 -0.55688,1.125 -1.84863,2.5 -1.29174,1.375 -2.57363,2.5 -2.84863,2.5 -0.275,0 0.55689,-1.125 1.84863,-2.5 z m -118.12755,-3.25 c -1.24387,-1.586 -1.2085,-1.6214 0.37755,-0.3775 0.9625,0.7548 1.75,1.5423 1.75,1.75 0,0.823 -0.82118,0.2933 -2.12755,-1.3725 z m -188.7935,-34.8333 c 0.048,-1.165 0.28494,-1.4019 0.60417,-0.6042 0.28887,0.7219 0.25334,1.5844 -0.0789,1.9167 -0.33229,0.3323 -0.56864,-0.2583 -0.52522,-1.3125 z m 1001.00001,0 c 0.048,-1.165 0.2849,-1.4019 0.6042,-0.6042 0.2888,0.7219 0.2533,1.5844 -0.079,1.9167 -0.3323,0.3323 -0.5686,-0.2583 -0.5252,-1.3125 z m -502,-1 c 0.048,-1.165 0.2849,-1.4019 0.6042,-0.6042 0.2888,0.7219 0.2533,1.5844 -0.079,1.9167 -0.3323,0.3323 -0.5686,-0.2583 -0.5252,-1.3125 z m -64.00001,-5 c 0.048,-1.165 0.28494,-1.4019 0.60417,-0.6042 0.28887,0.7219 0.25334,1.5844 -0.0789,1.9167 -0.33229,0.3323 -0.56864,-0.2583 -0.52522,-1.3125 z m 67.07891,-4.4167 c 0,-1.375 0.227,-1.9375 0.5044,-1.25 0.2774,0.6875 0.2774,1.8125 0,2.5 -0.2774,0.6875 -0.5044,0.125 -0.5044,-1.25 z m 63.9211,-3.5833 c 0.048,-1.165 0.2849,-1.4019 0.6042,-0.6042 0.2888,0.7219 0.2533,1.5844 -0.079,1.9167 -0.3323,0.3323 -0.5686,-0.2583 -0.5252,-1.3125 z m 436.1934,-2.4167 c 0,-2.475 0.195,-3.4875 0.4334,-2.25 0.2383,1.2375 0.2383,3.2625 0,4.5 -0.2384,1.2375 -0.4334,0.225 -0.4334,-2.25 z m -833.95228,-3 c 0,-3.575 0.18149,-5.0375 0.40332,-3.25 0.22182,1.7875 0.22182,4.7125 0,6.5 -0.22183,1.7875 -0.40332,0.325 -0.40332,-3.25 z m 664.75888,4.4167 c 0.048,-1.165 0.2849,-1.4019 0.6042,-0.6042 0.2888,0.7219 0.2533,1.5844 -0.079,1.9167 -0.3323,0.3323 -0.5686,-0.2583 -0.5252,-1.3125 z m -440.82677,-2.9167 c 0.0111,-2.2 0.21588,-2.9822 0.45507,-1.7383 0.2392,1.2439 0.23011,3.0439 -0.0202,4 -0.25029,0.9561 -0.44599,-0.062 -0.43489,-2.2617 z m -0.0202,-9.5 c 0,-1.925 0.2058,-2.7125 0.45733,-1.75 0.25153,0.9625 0.25153,2.5375 0,3.5 -0.25153,0.9625 -0.45733,0.175 -0.45733,-1.75 z m 610.06767,-3 c 0,-3.025 0.1875,-4.2625 0.4166,-2.75 0.2291,1.5125 0.2291,3.9875 0,5.5 -0.2291,1.5125 -0.4166,0.275 -0.4166,-2.75 z m -500.1047,-5.5 c 0.02,-1.65 0.2445,-2.2039 0.498,-1.2309 0.2536,0.9729 0.2369,2.3229 -0.037,3 -0.2739,0.677 -0.4814,-0.1191 -0.461,-1.7691 z m -3.116,-2.0833 c 0.048,-1.165 0.2849,-1.4019 0.6042,-0.6042 0.2888,0.7219 0.2533,1.5844 -0.079,1.9167 -0.3323,0.3323 -0.5686,-0.2583 -0.5252,-1.3125 z m -64.00002,-1 c 0.048,-1.165 0.28494,-1.4019 0.60417,-0.6042 0.28887,0.7219 0.25334,1.5844 -0.0789,1.9167 -0.33229,0.3323 -0.56864,-0.2583 -0.52522,-1.3125 z m 131.00002,0 c 0.048,-1.165 0.2849,-1.4019 0.6042,-0.6042 0.2888,0.7219 0.2533,1.5844 -0.079,1.9167 -0.3323,0.3323 -0.5686,-0.2583 -0.5252,-1.3125 z m -566.00002,-1 c 0.048,-1.165 0.28494,-1.4019 0.60417,-0.6042 0.28887,0.7219 0.25334,1.5844 -0.0789,1.9167 -0.33229,0.3323 -0.56864,-0.2583 -0.52522,-1.3125 z m 1,-10 c 0.048,-1.165 0.28494,-1.4019 0.60417,-0.6042 0.28887,0.7219 0.25334,1.5844 -0.0789,1.9167 -0.33229,0.3323 -0.56864,-0.2583 -0.52522,-1.3125 z m 243.19008,-51.1097 c 0.97297,-0.2535 2.32297,-0.2368 3,0.037 0.67704,0.2739 -0.11903,0.4814 -1.76903,0.461 -1.65,-0.02 -2.20393,-0.2445 -1.23097,-0.4981 z m 7.98097,0 c 0.9625,-0.2515 2.5375,-0.2515 3.5,0 0.9625,0.2515 0.175,0.4573 -1.75,0.4573 -1.925,0 -2.7125,-0.2058 -1.75,-0.4573 z m -101.25,-19.6882 c 0,-0.2077 0.7875,-0.9952 1.75,-1.75 1.58606,-1.2439 1.62143,-1.2085 0.37756,0.3775 -1.30637,1.6658 -2.12756,2.1955 -2.12756,1.3725 z m 698.40497,-4.8725 -1.905,-2.25 2.25,1.905 c 2.1145,1.7902 2.7053,2.595 1.905,2.595 -0.1897,0 -1.2022,-1.0125 -2.25,-2.25 z m -250.2471,-9.75 c 0,-1.375 0.227,-1.9375 0.5044,-1.25 0.2774,0.6875 0.2774,1.8125 0,2.5 -0.2774,0.6875 -0.5044,0.125 -0.5044,-1.25 z m -355.40787,-27.6623 c 0.6875,-0.2774 1.8125,-0.2774 2.5,0 0.6875,0.2775 0.125,0.5044 -1.25,0.5044 -1.375,0 -1.9375,-0.2269 -1.25,-0.5044 z m 15,0 c 0.6875,-0.2774 1.8125,-0.2774 2.5,0 0.6875,0.2775 0.125,0.5044 -1.25,0.5044 -1.375,0 -1.9375,-0.2269 -1.25,-0.5044 z m 227.06247,-23.0208 c 0.7219,-0.2889 1.5844,-0.2533 1.9167,0.079 0.3323,0.3322 -0.2583,0.5686 -1.3125,0.5252 -1.1649,-0.048 -1.4019,-0.285 -0.6042,-0.6042 z m 20,0 c 0.7219,-0.2889 1.5844,-0.2533 1.9167,0.079 0.3323,0.3322 -0.2583,0.5686 -1.3125,0.5252 -1.1649,-0.048 -1.4019,-0.285 -0.6042,-0.6042 z m -439.31247,-4.3169 c 0.99549,-1.1 2.03498,-2 2.30998,-2 0.275,0 -0.31449,0.9 -1.30998,2 -0.99548,1.1 -2.03497,2 -2.30997,2 -0.275,0 0.31449,-0.9 1.30997,-2 z m 869.37247,-2.75 c -1.2439,-1.586 -1.2085,-1.6214 0.3775,-0.3775 1.6658,1.3063 2.1955,2.1275 1.3725,2.1275 -0.2077,0 -0.9952,-0.7875 -1.75,-1.75 z m -630.12247,-5.9123 c 0.6875,-0.2774 1.8125,-0.2774 2.5,0 0.6875,0.2775 0.125,0.5044 -1.25,0.5044 -1.375,0 -1.9375,-0.2269 -1.25,-0.5044 z m -227.75,-2.7152 c 0,-0.2077 0.7875,-0.9952 1.75,-1.75 1.58606,-1.2439 1.62143,-1.2085 0.37756,0.3775 -1.30637,1.6658 -2.12756,2.1955 -2.12756,1.3725 z m 190.8125,-4.3056 c 0.72188,-0.2889 1.58438,-0.2533 1.91667,0.079 0.33229,0.3322 -0.25833,0.5686 -1.3125,0.5252 -1.16494,-0.048 -1.4019,-0.285 -0.60417,-0.6042 z m 652.05997,-2.0669 c -1.2439,-1.586 -1.2085,-1.6214 0.3775,-0.3775 1.6658,1.3063 2.1955,2.1275 1.3725,2.1275 -0.2077,0 -0.9952,-0.7875 -1.75,-1.75 z m -185.06,-1.9331 c 0.7219,-0.2889 1.5844,-0.2533 1.9167,0.079 0.3323,0.3322 -0.2583,0.5686 -1.3125,0.5252 -1.1649,-0.048 -1.4019,-0.285 -0.6042,-0.6042 z m 27,0 c 0.7219,-0.2889 1.5844,-0.2533 1.9167,0.079 0.3323,0.3322 -0.2583,0.5686 -1.3125,0.5252 -1.1649,-0.048 -1.4019,-0.285 -0.6042,-0.6042 z m -348.35952,-9.5669 -3.95295,-4.25 4.25,3.953 c 3.95246,3.6762 4.70953,4.547 3.95295,4.547 -0.16338,0 -2.07588,-1.9125 -4.25,-4.25 z m -341.70295,-26.4123 c 0.6875,-0.2774 1.8125,-0.2774 2.5,0 0.6875,0.2775 0.125,0.5044 -1.25,0.5044 -1.375,0 -1.9375,-0.2269 -1.25,-0.5044 z m 31,0 c 0.6875,-0.2774 1.8125,-0.2774 2.5,0 0.6875,0.2775 0.125,0.5044 -1.25,0.5044 -1.375,0 -1.9375,-0.2269 -1.25,-0.5044 z m -41.9375,-1.0208 c 0.72188,-0.2889 1.58438,-0.2533 1.91667,0.079 0.33229,0.3322 -0.25833,0.5686 -1.3125,0.5252 -1.16494,-0.048 -1.4019,-0.285 -0.60417,-0.6042 z m 831.94917,-0.024 c 1.2439,-0.2392 3.0439,-0.2301 4,0.02 0.9561,0.2503 -0.062,0.446 -2.2617,0.4349 -2.2,-0.011 -2.9822,-0.2158 -1.7383,-0.455 z m 16,0 c 1.2439,-0.2392 3.0439,-0.2301 4,0.02 0.9561,0.2503 -0.062,0.446 -2.2617,0.4349 -2.2,-0.011 -2.9822,-0.2158 -1.7383,-0.455 z m 17.0508,-0.9759 c 0.7219,-0.2889 1.5844,-0.2533 1.9167,0.079 0.3323,0.3322 -0.2583,0.5686 -1.3125,0.5252 -1.1649,-0.048 -1.4019,-0.285 -0.6042,-0.6042 z M -80.58803,993.36508 c 0.72188,-0.2889 1.58438,-0.2533 1.91667,0.079 0.33229,0.3322 -0.25833,0.5686 -1.3125,0.5252 -1.16494,-0.048 -1.4019,-0.285 -0.60417,-0.6042 z m 44,0 c 0.72188,-0.2889 1.58438,-0.2533 1.91667,0.079 0.33229,0.3322 -0.25833,0.5686 -1.3125,0.5252 -1.16494,-0.048 -1.4019,-0.285 -0.60417,-0.6042 z m -25.0848,-1.0386 c 1.77523,-0.2209 4.92523,-0.2245 7,-0.01 2.07477,0.2165 0.6223,0.3972 -3.2277,0.4017 -3.85,0 -5.54753,-0.1727 -3.7723,-0.3936 z m 486.08477,-2.9614 c 0.7219,-0.2889 1.5844,-0.2533 1.9167,0.079 0.3323,0.3322 -0.2583,0.5686 -1.3125,0.5252 -1.1649,-0.048 -1.4019,-0.285 -0.6042,-0.6042 z m 36.9375,0.021 c 0.6875,-0.2774 1.8125,-0.2774 2.5,0 0.6875,0.2775 0.125,0.5044 -1.25,0.5044 -1.375,0 -1.9375,-0.2269 -1.25,-0.5044 z m -388.67102,-16.921 c 0.048,-1.165 0.28494,-1.40191 0.60417,-0.6042 0.28887,0.7219 0.25334,1.5844 -0.0789,1.9167 -0.33229,0.3323 -0.56864,-0.2583 -0.52522,-1.3125 z M 185.75734,961.0484 c 0,-1.375 0.227,-1.9375 0.5044,-1.25 0.2774,0.6875 0.2774,1.8125 0,2.5 -0.2774,0.6875 -0.5044,0.125 -0.5044,-1.25 z m -237.15787,-8.37755 c 0,-0.20766 0.7875,-0.99516 1.75,-1.75 1.58606,-1.24387 1.62143,-1.2085 0.37756,0.37755 -1.30637,1.66575 -2.12756,2.19548 -2.12756,1.37245 z m -178.1875,-1.30556 c 0.72188,-0.28887 1.58438,-0.25334 1.91667,0.0789 0.33229,0.33229 -0.25833,0.56864 -1.3125,0.52522 -1.16494,-0.048 -1.4019,-0.28494 -0.60417,-0.60417 z m 27,0 c 0.72188,-0.28887 1.58438,-0.25334 1.91667,0.0789 0.33229,0.33229 -0.25833,0.56864 -1.3125,0.52522 -1.16494,-0.048 -1.4019,-0.28494 -0.60417,-0.60417 z m 275.26645,-0.90022 c 0.048,-1.16494 0.28494,-1.4019 0.60417,-0.60417 0.28887,0.72188 0.25334,1.58438 -0.0789,1.91667 -0.33229,0.33229 -0.56864,-0.25833 -0.52522,-1.3125 z m 510.19012,-0.10966 c 0.9729,-0.25354 2.3229,-0.23686 3,0.0371 0.677,0.27392 -0.1191,0.48137 -1.7691,0.46099 -1.65,-0.0204 -2.2039,-0.2445 -1.2309,-0.49805 z m 15,0 c 0.9729,-0.25354 2.3229,-0.23686 3,0.0371 0.677,0.27392 -0.1191,0.48137 -1.7691,0.46099 -1.65,-0.0204 -2.2039,-0.2445 -1.2309,-0.49805 z m -27.4566,-0.99012 c 0.7219,-0.28887 1.5844,-0.25334 1.9167,0.0789 0.3323,0.33229 -0.2583,0.56864 -1.3125,0.52522 -1.1649,-0.048 -1.4019,-0.28494 -0.6042,-0.60417 z M -35.40052,936.67865 c 0,-0.20766 0.7875,-0.99516 1.75,-1.75 1.58606,-1.24387 1.62143,-1.2085 0.37756,0.37755 -1.30637,1.66575 -2.12756,2.19548 -2.12756,1.37245 z m 817.99996,-6 c 0,-0.20766 0.7875,-0.99516 1.75,-1.75 1.5861,-1.24387 1.6215,-1.2085 0.3776,0.37755 -1.3064,1.66575 -2.1276,2.19548 -2.1276,1.37245 z m -595.7309,-14.31544 c 0.9729,-0.25354 2.3229,-0.23686 3,0.0371 0.677,0.27392 -0.1191,0.48137 -1.7691,0.46099 -1.65,-0.0204 -2.2039,-0.2445 -1.2309,-0.49805 z m 391.5434,-9.99012 c 0.7219,-0.28887 1.5844,-0.25334 1.9167,0.0789 0.3323,0.33229 -0.2583,0.56864 -1.3125,0.52522 -1.1649,-0.048 -1.4019,-0.28494 -0.6042,-0.60417 z m 25,0 c 0.7219,-0.28887 1.5844,-0.25334 1.9167,0.0789 0.3323,0.33229 -0.2583,0.56864 -1.3125,0.52522 -1.1649,-0.048 -1.4019,-0.28494 -0.6042,-0.60417 z m 48.06,-2.06689 c -1.2439,-1.58605 -1.2085,-1.62142 0.3775,-0.37755 0.9625,0.75484 1.75,1.54234 1.75,1.75 0,0.82303 -0.8211,0.2933 -2.1275,-1.37245 z m -159.41,-38.5 -4.9625,-5.25 5.25,4.96241 c 2.8875,2.72933 5.25,5.09183 5.25,5.25 0,0.74619 -0.9264,-0.084 -5.5375,-4.96241 z m 95.35,-19.43311 c 0.7219,-0.28887 1.5844,-0.25334 1.9167,0.0789 0.3323,0.33229 -0.2583,0.56864 -1.3125,0.52522 -1.1649,-0.048 -1.4019,-0.28494 -0.6042,-0.60417 z m 14,0 c 0.7219,-0.28887 1.5844,-0.25334 1.9167,0.0789 0.3323,0.33229 -0.2583,0.56864 -1.3125,0.52522 -1.1649,-0.048 -1.4019,-0.28494 -0.6042,-0.60417 z m -414.5434,-1.00988 c 0.9729,-0.25354 2.3229,-0.23686 3,0.0371 0.677,0.27392 -0.1191,0.48137 -1.7691,0.46099 -1.65,-0.0204 -2.2039,-0.2445 -1.2309,-0.49805 z M 23.67843,841.47287 c 0.048,-1.16494 0.28494,-1.4019 0.60417,-0.60417 0.28887,0.72188 0.25334,1.58438 -0.0789,1.91667 -0.33229,0.33229 -0.56864,-0.25833 -0.52522,-1.3125 z m -297.2065,-14.16667 c -1.24387,-1.58605 -1.2085,-1.62142 0.37755,-0.37755 1.66575,1.30637 2.19548,2.12755 1.37245,2.12755 -0.20766,0 -0.99516,-0.7875 -1.75,-1.75 z m 297.2065,-3.83333 c 0.048,-1.16494 0.28494,-1.4019 0.60417,-0.60417 0.28887,0.72188 0.25334,1.58438 -0.0789,1.91667 -0.33229,0.33229 -0.56864,-0.25833 -0.52522,-1.3125 z M 92.59948,793.5562 c 1.29175,-1.375 2.57363,-2.5 2.84863,-2.5 0.275,0 -0.55688,1.125 -1.84863,2.5 -1.29174,1.375 -2.57363,2.5 -2.84863,2.5 -0.275,0 0.55689,-1.125 1.84863,-2.5 z m 752.07896,-13.08333 c 0.048,-1.16494 0.2849,-1.4019 0.6042,-0.60417 0.2888,0.72188 0.2533,1.58438 -0.079,1.91667 -0.3323,0.33229 -0.5686,-0.25833 -0.5252,-1.3125 z M -469.02645,766.5562 c 0.002,-6.05 0.16696,-8.39606 0.36601,-5.21348 0.19905,3.18258 0.1972,8.13258 -0.004,11 -0.20131,2.86742 -0.36417,0.26348 -0.36191,-5.78652 z m 354.87593,9.81068 c 0.9625,-0.25153 2.5375,-0.25153 3.5,0 0.9625,0.25153 0.175,0.45732 -1.75,0.45732 -1.925,0 -2.7125,-0.20579 -1.75,-0.45732 z m 600.49996,-1.01641 c 1.2375,-0.23835 3.2625,-0.23835 4.5,0 1.2375,0.23835 0.225,0.43337 -2.25,0.43337 -2.475,0 -3.4875,-0.19502 -2.25,-0.43337 z m -786.67101,-1.8776 c 0.048,-1.16494 0.28494,-1.4019 0.60417,-0.60417 0.28887,0.72188 0.25334,1.58438 -0.0789,1.91667 -0.33229,0.33229 -0.56864,-0.25833 -0.52522,-1.3125 z m 220.92105,0.20578 c 0,-0.20766 0.7875,-0.99516 1.75,-1.75 1.58606,-1.24387 1.62143,-1.2085 0.37756,0.37755 -1.30637,1.66575 -2.12756,2.19548 -2.12756,1.37245 z m 59.26903,-0.31544 c 0.97297,-0.25354 2.32297,-0.23686 3,0.0371 0.67704,0.27392 -0.11903,0.48137 -1.76903,0.46099 -1.65,-0.0204 -2.20393,-0.2445 -1.23097,-0.49805 z m 29.49263,-1.01427 c 1.24391,-0.23919 3.04391,-0.23011 4,0.0202 0.95609,0.2503 -0.0617,0.446 -2.26166,0.4349 -2.2,-0.0111 -2.98225,-0.21588 -1.73834,-0.45508 z m 374,0 c 1.2439,-0.23919 3.0439,-0.23011 4,0.0202 0.9561,0.2503 -0.062,0.446 -2.2617,0.4349 -2.2,-0.0111 -2.9822,-0.21588 -1.7383,-0.45508 z m -683.68271,-11.87607 c 0.048,-1.16494 0.28494,-1.4019 0.60417,-0.60417 0.28887,0.72188 0.25334,1.58438 -0.0789,1.91667 -0.33229,0.33229 -0.56864,-0.25833 -0.52522,-1.3125 z M 56.09948,757.0562 c 2.14824,-2.2 4.1309,-4 4.4059,-4 0.275,0 -1.25766,1.8 -3.4059,4 -2.14824,2.2 -4.13089,4 -4.40589,4 -0.275,0 1.25765,-1.8 3.40589,-4 z m -131.42105,1.41667 c 0.048,-1.16494 0.28494,-1.4019 0.60417,-0.60417 0.28887,0.72188 0.25334,1.58438 -0.0789,1.91667 -0.33229,0.33229 -0.56864,-0.25833 -0.52522,-1.3125 z m 420.15301,-2.41667 c 0,-1.925 0.2058,-2.7125 0.4574,-1.75 0.2515,0.9625 0.2515,2.5375 0,3.5 -0.2516,0.9625 -0.4574,0.175 -0.4574,-1.75 z m 62.847,-3.58333 c 0.048,-1.16494 0.2849,-1.4019 0.6042,-0.60417 0.2888,0.72188 0.2533,1.58438 -0.079,1.91667 -0.3323,0.33229 -0.5686,-0.25833 -0.5252,-1.3125 z m 437.0789,-2.41667 c 0,-1.375 0.227,-1.9375 0.5044,-1.25 0.2774,0.6875 0.2774,1.8125 0,2.5 -0.2774,0.6875 -0.5044,0.125 -0.5044,-1.25 z m -877.07891,-0.58333 c 0.048,-1.16494 0.28494,-1.4019 0.60417,-0.60417 0.28887,0.72188 0.25334,1.58438 -0.0789,1.91667 -0.33229,0.33229 -0.56864,-0.25833 -0.52522,-1.3125 z m 63,0 c 0.048,-1.16494 0.28494,-1.4019 0.60417,-0.60417 0.28887,0.72188 0.25334,1.58438 -0.0789,1.91667 -0.33229,0.33229 -0.56864,-0.25833 -0.52522,-1.3125 z m 96.73355,-18.09978 c 0.72188,-0.28887 1.58438,-0.25334 1.91667,0.0789 0.33229,0.33229 -0.25833,0.56864 -1.3125,0.52522 -1.16494,-0.048 -1.4019,-0.28494 -0.60417,-0.60417 z m 405.18746,-18.69444 c 0,-0.20766 0.7875,-0.99516 1.75,-1.75 1.5861,-1.24387 1.6215,-1.2085 0.3776,0.37755 -1.3064,1.66575 -2.1276,2.19548 -2.1276,1.37245 z m -809.99996,-3 c 0,-0.20766 0.7875,-0.99516 1.75,-1.75 1.58606,-1.24387 1.62143,-1.2085 0.37756,0.37755 -1.30637,1.66575 -2.12756,2.19548 -2.12756,1.37245 z m 816.99996,-4 c 0,-0.20766 0.7875,-0.99516 1.75,-1.75 1.5861,-1.24387 1.6215,-1.2085 0.3776,0.37755 -1.3064,1.66575 -2.1276,2.19548 -2.1276,1.37245 z m -766.18746,-20.30556 c 0.72188,-0.28887 1.58438,-0.25334 1.91667,0.0789 0.33229,0.33229 -0.25833,0.56864 -1.3125,0.52522 -1.16494,-0.048 -1.4019,-0.28494 -0.60417,-0.60417 z M 488.09944,671.0562 c 0.9955,-1.1 2.035,-2 2.31,-2 0.275,0 -0.3145,0.9 -1.31,2 -0.9954,1.1 -2.0349,2 -2.3099,2 -0.275,0 0.3145,-0.9 1.3099,-2 z m -466.62751,-14.75 c -1.24387,-1.58605 -1.2085,-1.62142 0.37755,-0.37755 0.9625,0.75484 1.75,1.54234 1.75,1.75 0,0.82303 -0.82118,0.2933 -2.12755,-1.37245 z m -106.94813,-19 -2.42432,-2.75 2.75,2.42432 c 1.5125,1.33337 2.75,2.57087 2.75,2.75 0,0.78427 -0.8098,0.14597 -3.07568,-2.42432 z m 468.80904,-7.37408 c 0.6783,-0.68342 1.4852,-0.99067 1.7931,-0.68279 0.3079,0.30789 -0.2471,0.86705 -1.2333,1.24258 -1.4252,0.54269 -1.5401,0.42782 -0.5598,-0.55979 z m 15.4987,-20.87592 c 0.687,-1.1 1.6605,-2 2.1635,-2 0.5029,0 0.1,0.9 -0.8956,2 -0.9954,1.1 -1.969,2 -2.1634,2 -0.1944,0 0.2086,-0.9 0.8955,-2 z m -79.2321,-3.37755 c 0,-0.20766 0.7875,-0.99516 1.75,-1.75 1.5861,-1.24387 1.6215,-1.2085 0.3776,0.37755 -1.3064,1.66575 -2.1276,2.19548 -2.1276,1.37245 z m -725.99996,-5 c 0,-0.20766 0.7875,-0.99516 1.75,-1.75 1.58606,-1.24387 1.62143,-1.2085 0.37756,0.37755 -1.30637,1.66575 -2.12756,2.19548 -2.12756,1.37245 z m 957.87246,-4.37245 c -1.2439,-1.58605 -1.2085,-1.62142 0.3775,-0.37755 0.9625,0.75484 1.75,1.54234 1.75,1.75 0,0.82303 -0.8211,0.2933 -2.1275,-1.37245 z m -594.40376,-7.5 -5.9687,-6.25 6.25,5.9687 c 5.80572,5.54441 6.7076,6.5313 5.9687,6.5313 -0.15472,0 -2.96722,-2.8125 -6.25,-6.25 z m 808.40376,-6.5 c -1.2439,-1.58605 -1.2085,-1.62142 0.3775,-0.37755 0.9625,0.75484 1.75,1.54234 1.75,1.75 0,0.82303 -0.8211,0.2933 -2.1275,-1.37245 z m -481.8725,-2.62755 c 0,-0.20766 0.7875,-0.99516 1.75,-1.75 1.5861,-1.24387 1.6215,-1.2085 0.3776,0.37755 -1.3064,1.66575 -2.1276,2.19548 -2.1276,1.37245 z M 90.5238,574.3062 l -2.42432,-2.75 2.75,2.42432 c 2.57029,2.26589 3.20859,3.07568 2.42432,3.07568 -0.17913,0 -1.41663,-1.2375 -2.75,-2.75 z m 202.07564,-3.62755 c 0,-0.20766 0.7875,-0.99516 1.75,-1.75 1.5861,-1.24387 1.6215,-1.2085 0.3776,0.37755 -1.3064,1.66575 -2.1276,2.19548 -2.1276,1.37245 z m 193.5701,-31.50914 c -0.3014,-0.48768 0.2345,-1.50018 1.191,-2.25 1.5361,-1.2043 1.5942,-1.17762 0.4976,0.2287 -0.6827,0.87561 -0.9452,1.88811 -0.5833,2.25 0.3619,0.3619 0.3845,0.65799 0.05,0.65799 -0.3342,0 -0.8542,-0.39901 -1.1556,-0.88669 z M 247.09944,529.0562 c 0.9955,-1.1 2.035,-2 2.31,-2 0.275,0 -0.3145,0.9 -1.31,2 -0.9954,1.1 -2.0349,2 -2.3099,2 -0.275,0 0.3145,-0.9 1.3099,-2 z m 253.5,-6.5 c 1.8658,-1.925 3.6174,-3.5 3.8924,-3.5 0.275,0 -1.0266,1.575 -2.8924,3.5 -1.8657,1.925 -3.6173,3.5 -3.8923,3.5 -0.275,0 1.0266,-1.575 2.8923,-3.5 z m -729.74996,-6.18932 c 0.9625,-0.25153 2.5375,-0.25153 3.5,0 0.9625,0.25153 0.175,0.45732 -1.75,0.45732 -1.925,0 -2.7125,-0.20579 -1.75,-0.45732 z m 18,0 c 0.9625,-0.25153 2.5375,-0.25153 3.5,0 0.9625,0.25153 0.175,0.45732 -1.75,0.45732 -1.925,0 -2.7125,-0.20579 -1.75,-0.45732 z m 789.56246,-0.99379 c 0.7219,-0.28887 1.5844,-0.25334 1.9167,0.0789 0.3323,0.33229 -0.2583,0.56864 -1.3125,0.52522 -1.1649,-0.048 -1.4019,-0.28494 -0.6042,-0.60417 z m 32,0 c 0.7219,-0.28887 1.5844,-0.25334 1.9167,0.0789 0.3323,0.33229 -0.2583,0.56864 -1.3125,0.52522 -1.1649,-0.048 -1.4019,-0.28494 -0.6042,-0.60417 z m -84.3125,-18.31689 c 0.9955,-1.1 2.035,-2 2.31,-2 0.275,0 -0.3145,0.9 -1.31,2 -0.9954,1.1 -2.0349,2 -2.3099,2 -0.275,0 0.3145,-0.9 1.3099,-2 z M 6.67843,494.47287 c 0.048,-1.16494 0.28494,-1.4019 0.60417,-0.60417 0.28887,0.72188 0.25334,1.58438 -0.0789,1.91667 -0.33229,0.33229 -0.56864,-0.25833 -0.52522,-1.3125 z m 43.07895,-8.41667 c 0,-1.375 0.22697,-1.9375 0.50438,-1.25 0.27742,0.6875 0.27742,1.8125 0,2.5 -0.27741,0.6875 -0.50438,0.125 -0.50438,-1.25 z m 323.99996,-1 c 0,-1.375 0.227,-1.9375 0.5044,-1.25 0.2774,0.6875 0.2774,1.8125 0,2.5 -0.2774,0.6875 -0.5044,0.125 -0.5044,-1.25 z m 66,0 c 0,-1.375 0.227,-1.9375 0.5044,-1.25 0.2774,0.6875 0.2774,1.8125 0,2.5 -0.2774,0.6875 -0.5044,0.125 -0.5044,-1.25 z m -499.87184,-6.5 c 0.008,-2.75 0.20171,-3.75631 0.43156,-2.23625 0.22986,1.52007 0.22372,3.77007 -0.0136,5 -0.23736,1.22994 -0.42542,-0.0137 -0.41791,-2.76375 z m 66,0 c 0.008,-2.75 0.20171,-3.75631 0.43156,-2.23625 0.22986,1.52007 0.22372,3.77007 -0.0136,5 -0.23736,1.22994 -0.42542,-0.0137 -0.41791,-2.76375 z m 451.71394,4.12245 c 0,-0.20766 0.7875,-0.99516 1.75,-1.75 1.5861,-1.24387 1.6215,-1.2085 0.3776,0.37755 -1.3064,1.66575 -2.1276,2.19548 -2.1276,1.37245 z m 20,-21.12245 c 2.9875,-3.025 5.6567,-5.5 5.9317,-5.5 0.275,0 -1.9442,2.475 -4.9317,5.5 -2.9874,3.025 -5.6566,5.5 -5.9316,5.5 -0.275,0 1.9442,-2.475 4.9316,-5.5 z m -537.74777,1 c 0.0111,-2.2 0.21588,-2.98225 0.45507,-1.73834 0.2392,1.24392 0.23011,3.04392 -0.0202,4 -0.25029,0.95609 -0.44599,-0.0617 -0.43489,-2.26166 z m 168.82676,0.91667 c 0.048,-1.16494 0.28494,-1.4019 0.60417,-0.60417 0.28887,0.72188 0.25334,1.58438 -0.0789,1.91667 -0.33229,0.33229 -0.56864,-0.25833 -0.52522,-1.3125 z m 331.00001,-7 c 0.048,-1.16494 0.2849,-1.4019 0.6042,-0.60417 0.2888,0.72188 0.2533,1.58438 -0.079,1.91667 -0.3323,0.33229 -0.5686,-0.25833 -0.5252,-1.3125 z m 55.921,-11.79422 c 0,-0.20766 0.7875,-0.99516 1.75,-1.75 1.5861,-1.24387 1.6215,-1.2085 0.3776,0.37755 -1.3064,1.66575 -2.1276,2.19548 -2.1276,1.37245 z m 272,-13.12245 c 1.2918,-1.375 2.5737,-2.5 2.8487,-2.5 0.275,0 -0.5569,1.125 -1.8487,2.5 -1.2917,1.375 -2.5736,2.5 -2.8486,2.5 -0.275,0 0.5569,-1.125 1.8486,-2.5 z m 160.25,-15.18932 c 0.9625,-0.25153 2.5375,-0.25153 3.5,0 0.9625,0.25153 0.175,0.45732 -1.75,0.45732 -1.925,0 -2.7125,-0.20579 -1.75,-0.45732 z m -91.3775,-10.06068 c -1.2439,-1.58605 -1.2085,-1.62142 0.3775,-0.37755 1.6658,1.30637 2.1955,2.12755 1.3725,2.12755 -0.2077,0 -0.9952,-0.7875 -1.75,-1.75 z m 51.1275,-0.75 c 1.2918,-1.375 2.5737,-2.5 2.8487,-2.5 0.275,0 -0.5569,1.125 -1.8487,2.5 -1.2917,1.375 -2.5736,2.5 -2.8486,2.5 -0.275,0 0.5569,-1.125 1.8486,-2.5 z m 14.9244,-0.25 -2.4244,-2.75 2.75,2.42432 c 1.5125,1.33337 2.75,2.57087 2.75,2.75 0,0.78427 -0.8098,0.14597 -3.0756,-2.42432 z m 63.3278,-25.75 c 0.011,-2.2 0.2159,-2.98225 0.4551,-1.73834 0.2392,1.24392 0.2301,3.04392 -0.02,4 -0.2503,0.95609 -0.446,-0.0617 -0.4349,-2.26166 z m -249.905,-0.33115 c 0.9115,-1.00713 1.3187,-2.20428 0.905,-2.66032 -0.4137,-0.45605 -0.1603,-0.48735 0.563,-0.0696 1.2256,0.70787 -0.9921,4.56104 -2.6251,4.56104 -0.275,0 0.2457,-0.82401 1.1571,-1.83115 z m 29.6528,-11.22786 c 0,-0.58246 0.45,-0.7809 1,-0.44099 0.55,0.33992 1,0.81648 1,1.05902 0,0.24254 -0.45,0.44098 -1,0.44098 -0.55,0 -1,-0.47655 -1,-1.05901 z m 80.8725,-5.69099 c -1.2439,-1.58605 -1.2085,-1.62142 0.3775,-0.37755 1.6658,1.30637 2.1955,2.12755 1.3725,2.12755 -0.2077,0 -0.9952,-0.7875 -1.75,-1.75 z m 8.6275,-8.25 c 0.9955,-1.1 2.035,-2 2.31,-2 0.275,0 -0.3145,0.9 -1.31,2 -0.9954,1.1 -2.0349,2 -2.3099,2 -0.275,0 0.3145,-0.9 1.3099,-2 z m 52.905,-0.25 -1.905,-2.25 2.25,1.90499 c 1.2375,1.04775 2.25,2.06025 2.25,2.25 0,0.80026 -0.8048,0.20946 -2.595,-1.90499 z m 68.1377,1.3191 c -0.3164,-0.51199 -0.1929,-1.1672 0.2744,-1.45601 0.4673,-0.28881 0.8496,0.1301 0.8496,0.9309 0,1.68617 -0.3153,1.8335 -1.124,0.52511 z m -127.7302,-2.75221 c 0.7219,-0.28887 1.5844,-0.25334 1.9167,0.079 0.3323,0.33229 -0.2583,0.56864 -1.3125,0.52522 -1.1649,-0.048 -1.4019,-0.28494 -0.6042,-0.60417 z m 142.2665,-17.90022 c 0.048,-1.16494 0.2849,-1.4019 0.6042,-0.60417 0.2888,0.72188 0.2533,1.58438 -0.079,1.91667 -0.3323,0.33229 -0.5686,-0.25833 -0.5252,-1.3125 z m -155.2665,-26.09978 c 0.7219,-0.28887 1.5844,-0.25334 1.9167,0.079 0.3323,0.33229 -0.2583,0.56864 -1.3125,0.52522 -1.1649,-0.048 -1.4019,-0.28494 -0.6042,-0.60417 z m -442.4075,-7.56689 -1.905,-2.25 2.25,1.90499 c 2.1145,1.79022 2.7053,2.59501 1.905,2.59501 -0.1897,0 -1.2022,-1.0125 -2.25,-2.25 z m -360.40496,-6.25 c 1.86579,-1.925 3.61734,-3.5 3.89234,-3.5 0.275,0 -1.02655,1.575 -2.89234,3.5 -1.86578,1.925 -3.61733,3.5 -3.89233,3.5 -0.275,0 1.02655,-1.575 2.89233,-3.5 z m 347.40496,-6.75 -1.905,-2.25 2.25,1.90499 c 2.1145,1.79022 2.7053,2.59501 1.905,2.59501 -0.1897,0 -1.2022,-1.0125 -2.25,-2.25 z m 397.595,-31.12755 c 0,-0.20766 0.7875,-0.99516 1.75,-1.75 1.5861,-1.24387 1.6215,-1.2085 0.3776,0.37755 -1.3064,1.66575 -2.1276,2.19548 -2.1276,1.37245 z m 22.8125,-11.30556 c 0.7219,-0.28887 1.5844,-0.25334 1.9167,0.079 0.3323,0.33229 -0.2583,0.56864 -1.3125,0.52522 -1.1649,-0.048 -1.4019,-0.28494 -0.6042,-0.60417 z m 6,0 c 0.7219,-0.28887 1.5844,-0.25334 1.9167,0.079 0.3323,0.33229 -0.2583,0.56864 -1.3125,0.52522 -1.1649,-0.048 -1.4019,-0.28494 -0.6042,-0.60417 z m -615,-24 c 0.7219,-0.28887 1.5844,-0.25334 1.9167,0.0789 0.3323,0.33229 -0.2583,0.56864 -1.3125,0.52522 -1.1649,-0.048 -1.4019,-0.28494 -0.6042,-0.60417 z m 36,0 c 0.7219,-0.28887 1.5844,-0.25334 1.9167,0.0789 0.3323,0.33229 -0.2583,0.56864 -1.3125,0.52522 -1.1649,-0.048 -1.4019,-0.28494 -0.6042,-0.60417 z"
       id="path5" />
    <g
       id="g185"
       transform="matrix(0.18134053,0,0,0.18134053,-317.53156,-1098.5208)"
       style="stroke-width:12.5;stroke-dasharray:none">
      <path
         id="path37"
         style="fill:#40a850;fill-opacity:1;stroke:#265a34;stroke-width:12.5;stroke-dasharray:none;stroke-opacity:1"
         d="m 1401.0254,-802.02734 c -31.4636,0.61426 -57.9999,18.24168 -73.9883,52.06836 -21.13,44.70473 -5.5533,86.02885 43.2754,114.81445 8.0424,4.7412 7.9575,4.60633 5.6602,9.04883 -30.3631,58.7156 11.8535,135.94075 80.2089,146.72265 67.7842,10.6917 129.3676,-51.56223 118.4454,-119.73633 -13.2123,-82.469 -111.3981,-116.75241 -174.4688,-60.91796 l -4.9394,4.37304 -7.0606,-3.96875 c -37.6225,-21.1491 -48.7003,-46.23284 -34.0977,-77.21484 18.2031,-38.62102 48.9577,-45.69487 92.6739,-21.31641 4.7503,2.64904 9.731,4.81641 11.0683,4.81641 3.1842,0 12.795,2.86668 12.795,3.81641 0,0.40631 -0.7079,1.74842 -1.5723,2.98242 -2.9001,4.14052 6.6141,6.69916 13.2324,3.55859 11.9201,-5.65647 11.1818,-19.86039 -1.5176,-29.22265 -27.791,-20.48811 -55.2432,-30.30198 -79.7148,-29.82422 z m 70.584,163.10546 c 24.025,-0.21461 39.919,31.5448 18.9218,50.98438 l -5.9667,5.52539 6.4785,25.85547 c 3.5629,14.2205 6.768,26.61201 7.123,27.53711 0.595,1.5505 -1.4749,1.68164 -26.4629,1.68164 -21.0178,0 -27.1064,-0.2808 -27.1074,-1.25 0,-0.6875 2.9985,-13.08714 6.666,-27.55664 l 6.668,-26.30859 -5.207,-4.55469 c -16.8261,-14.7192 -13.4574,-39.87772 6.5664,-49.04492 4.2407,-1.94149 8.3889,-2.83403 12.3203,-2.86915 z" />
      <path
         style="fill:#40a850;fill-opacity:1;stroke:#265a34;stroke-width:12.5;stroke-dasharray:none;stroke-opacity:1"
         d="m 2192.4793,-1242.7178 c -27.8069,-9.9368 -21.7433,-49.7773 7.6177,-50.0517 19.4396,-0.1818 31.6365,19.7251 22.8674,37.3224 -5.4693,10.9755 -19.2686,16.7375 -30.4851,12.7293 z"
         id="path176" />
      <path
         style="fill:#40a850;fill-opacity:1;stroke:#265a34;stroke-width:12.5;stroke-dasharray:none;stroke-opacity:1"
         d="m 2125.5906,-1240.2716 c -26.9236,-8.1898 -24.0728,-46.9352 3.7247,-50.6226 25.0311,-3.3206 38.901,29.4891 19.3154,45.6912 -5.8172,4.8123 -16.1567,7.0253 -23.0401,4.9314 z"
         id="path175" />
      <path
         style="fill:#40a850;fill-opacity:1;stroke:#265a34;stroke-width:12.5;stroke-dasharray:none;stroke-opacity:1"
         d="m 2060.5906,-1237.2116 c -28.5098,-9.3544 -22.7907,-50.6362 6.9975,-50.5098 26.9903,0.1146 35.6407,36.3282 11.6066,48.5894 -4.3791,2.2341 -14.4727,3.276 -18.6041,1.9204 z"
         id="path173" />
      <path
         style="fill:#40a850;fill-opacity:1;stroke:#265a34;stroke-width:12.5;stroke-dasharray:none;stroke-opacity:1"
         d="m 1999.5906,-1220.2716 c -28.4984,-8.6688 -23.1315,-50.3018 6.5064,-50.4729 14.9399,-0.086 25.7516,10.6189 25.8109,25.5565 0.066,16.5871 -16.8428,29.6236 -32.3173,24.9164 z"
         id="path172" />
      <path
         style="fill:#40a850;fill-opacity:1;stroke:#265a34;stroke-width:12.5;stroke-dasharray:none;stroke-opacity:1"
         d="m 2134.097,-1141.7205 c -24.5866,-11.6234 -16.2175,-48.5972 11,-48.5972 14.609,0 25.4385,10.8348 25.4683,25.4805 0.038,18.9436 -19.328,31.2198 -36.4683,23.1167 z"
         id="path168" />
      <path
         style="fill:#40a850;fill-opacity:1;stroke:#265a34;stroke-width:12.5;stroke-dasharray:none;stroke-opacity:1"
         d="m 2208.0969,-1139.3267 c -15.4724,-2.4481 -25.2121,-18.6674 -20.1432,-33.5439 9.3223,-27.3593 49.7035,-20.8633 49.9384,8.0334 0.1308,16.0937 -13.8197,28.0381 -29.7952,25.5105 z"
         id="path167" />
      <path
         style="fill:#40a850;fill-opacity:1;stroke:#265a34;stroke-width:12.5;stroke-dasharray:none;stroke-opacity:1"
         d="m 2076.1549,-1130.768 c -24.9033,-9.2589 -21.9882,-44.8912 4.069,-49.737 24.306,-4.5202 40.043,24.8904 23.0112,43.0054 -6.5745,6.9926 -18.4429,9.9429 -27.0802,6.7316 z"
         id="path165" />
      <path
         style="fill:#40a850;fill-opacity:1;stroke:#265a34;stroke-width:12.5;stroke-dasharray:none;stroke-opacity:1"
         d="m 2018.5906,-1114.2716 c -19.2403,-5.8526 -25.1285,-29.0259 -10.9724,-43.1821 15.9959,-15.9958 43.9788,-4.4687 43.9788,18.1165 0,16.2795 -17.7004,29.7215 -33.0064,25.0656 z"
         id="path162" />
      <path
         style="fill:#40a850;fill-opacity:1;stroke:#265a34;stroke-width:12.5;stroke-dasharray:none;stroke-opacity:1"
         d="m 1705.1029,-972.66985 c 7.3071,-15.29196 13.7626,-32.47815 16.4923,-43.90715 2.1188,-8.8709 1.9269,-8.5941 20.963,-30.2486 75.354,-85.7189 181.3693,-146.1542 296.3236,-168.9228 64.1091,-12.6979 179.3119,-17.4616 195.3258,-8.0768 12.3397,7.2315 11.159,23.5872 -1.5979,22.1354 -2.482,-0.2824 -8.5628,-0.9718 -13.5128,-1.5319 -168.1959,-19.0321 -329.6056,47.4824 -455.8069,187.8314 -17.6206,19.59593 -20.8495,22.59711 -34.7068,32.25879 -6.8675,4.78816 -16.3756,12.06348 -21.1292,16.16739 l -8.643,7.46166 z"
         id="path131" />
      <path
         style="fill:#40a850;fill-opacity:1;stroke:#265a34;stroke-width:12.5;stroke-dasharray:none;stroke-opacity:1"
         d="m 1385.5972,-850.39183 c -160.3302,-64.04253 -203.0216,-270.47767 -81.0554,-391.94537 116.4351,-115.9593 311.5193,-83.1573 383.6024,64.5 52.5555,107.6562 17.4001,237.1262 -82.5473,304.00469 -18.6553,12.483 -52.2637,28.30437 -54.0355,25.43756 -1.9175,-3.10255 -13.0964,-35.91965 -12.5416,-36.81737 0.3328,-0.53846 2.2863,-1.51603 4.3412,-2.17238 52.2769,-16.69816 103.1763,-73.5618 118.5599,-132.4525 13.844,-52.9971 5.6428,-76.9852 -26.324,-76.9964 -22.0201,-0.01 -31.4193,9.6076 -33.1049,33.8663 -3.4293,49.353 -31.0477,90.59805 -74.006,110.51992 -13.7629,6.38252 -11.7356,7.68482 -18.8149,-12.08645 -7.9389,-22.17213 -7.9548,-20.31469 0.2042,-23.82601 91.4593,-39.36046 62.8529,-176.60676 -36.7783,-176.45266 -99.1032,0.1533 -127.8484,133.4838 -37.8686,175.64969 4.6027,2.15697 8.3687,4.314 8.3687,4.79338 0,1.34062 -12.2022,35.42262 -13.0127,36.34571 -0.9852,1.12212 -11.8669,-3.42188 -21.4872,-8.97272 -38.9709,-22.48576 -61.6173,-59.49286 -65.3831,-106.84446 -1.8082,-22.736 -11.7661,-32.9633 -32.1169,-32.9858 -22.4206,-0.025 -33.5611,11.3972 -33.1515,33.9895 1.3678,75.44168 53.8158,149.67659 123.6515,175.01629 2.75,0.99783 5.2911,2.07736 5.647,2.39895 0.8439,0.76276 -12.4263,37.35355 -13.6851,37.7347 -0.5291,0.16018 -4.3369,-1.05687 -8.4619,-2.70457 z"
         id="path109" />
      <path
         style="fill:#40a850;fill-opacity:1;stroke:#265a34;stroke-width:12.5;stroke-dasharray:none;stroke-opacity:1"
         d="m 1860.0969,-540.3322 c -58.0984,-4.9504 -111.01,-29.3963 -151.4126,-69.9547 -9.3024,-9.3383 -21.7601,-23.8228 -20.9748,-24.3873 0.2131,-0.1532 7.4424,-5.7351 16.0652,-12.4042 l 15.6777,-12.1258 7.8223,9.078 c 48.796,56.6293 129.0252,80.7228 200.2628,60.1407 22.4258,-6.4794 30.5718,-20.5318 24.082,-41.5434 -6.2636,-20.2791 -20.5293,-27.3808 -42.9492,-21.3808 -37.0793,9.9231 -75.8317,3.2033 -108.0302,-18.7328 -8.352,-5.69 -29.4892,-26.1641 -28.5613,-27.6653 0.8693,-1.4066 30.2933,-24.02945 31.2534,-24.02945 0.4509,0 3.2206,2.72745 6.1549,6.061 72.5858,82.46175 203.8957,-14.20568 148.1003,-109.02818 -45.8395,-77.9031 -171.9905,-45.44668 -171.9905,44.25014 v 3.02098 l -10.6555,-0.65197 c -5.8606,-0.35858 -14.8606,-0.65197 -20,-0.65197 h -9.3445 v -5.369 c 0,-47.15364 35.3258,-94.31832 85.742,-114.47728 40.1198,-16.04192 19.7073,-75.34786 -21.242,-61.71574 -71.6334,23.84699 -124.0832,92.58318 -130.0585,170.44362 l -0.72,9.3816 -6.6107,-0.62449 c -3.6359,-0.34347 -12.8014,-0.62769 -20.3677,-0.6316 l -13.757,-0.007 0.5448,-7.25 c 17.7154,-235.72516 319.3866,-313.16766 442.9486,-113.71012 101.907,164.50138 -29.7348,380.34586 -221.9795,363.96516 z"
         id="path49" />
      <path
         style="fill:#40a850;fill-opacity:1;stroke:#265a34;stroke-width:12.5;stroke-dasharray:none;stroke-opacity:1"
         d="m 1040.5972,-539.4007 c -223.82903,-24.4995 -294.73178,-313.45116 -107.50005,-438.09731 151.52975,-100.87819 357.04685,1.44669 370.06765,184.25288 l 0.6832,9.59211 -8.3754,0.65189 c -4.6065,0.35854 -13.8203,0.65459 -20.4751,0.65789 l -12.0997,0.006 -0.6529,-9.96251 c -4.8654,-74.24357 -58.6702,-144.21458 -129.237,-168.06767 -22.5826,-7.63338 -39.1205,2.63525 -43.4735,26.99337 -2.9955,16.76165 4.1798,28.02111 22.3043,35.00027 48.7941,18.78889 80.5467,60.4402 85.2198,111.78654 l 0.6598,7.25 -10.8106,0.005 c -5.9458,0.003 -15.128,0.29112 -20.405,0.64061 l -9.5945,0.63543 -0.6753,-8.09691 c -7.6153,-91.31408 -133.871,-115.12499 -174.39651,-32.88974 -48.14297,97.69292 83.96001,183.61515 153.81961,100.04717 l 3.4763,-4.15844 15.4763,11.88992 c 18.3794,14.1203 17.3745,12.1795 10.5009,20.2817 -29.7224,35.0351 -83.3745,51.9083 -127.9894,40.2519 -22.9555,-5.9975 -35.5924,-1.2887 -43.8726,16.348 -9.18489,19.5636 -0.77836,38.863 19.628,45.0613 73.836,22.427 162.0239,-5.5093 207.8704,-65.8495 l 2.5329,-3.3336 15.9092,12.2228 c 8.75,6.7226 15.7708,12.6878 15.6017,13.256 -0.6907,2.3208 -13.6863,16.88 -24.3347,27.2626 -49.3467,48.1147 -122.6102,73.7231 -189.8578,66.3623 z"
         id="path48" />
      <path
         style="fill:#40a850;fill-opacity:1;stroke:#265a34;stroke-width:12.5;stroke-dasharray:none;stroke-opacity:1"
         d="M 1700.5969,-67.452717 C 1526.7448,-87.295517 1432.1367,-280.21342 1522.8095,-429.9831 l 6.1425,-10.146 16.5725,11.0364 c 9.1148,6.06998 16.7404,11.17858 16.9457,11.35248 0.2052,0.1739 -2.2617,4.7232 -5.4821,10.1096 -37.9854,63.5336 -35.9573,145.1931 5.1394,206.9307 15.1758,22.798 33.3133,25.8959 52.1992,8.9158 13.9006,-12.4978 14.783,-26.8181 2.7454,-44.5531 -21.7139,-31.9912 -27.4776,-75.3266 -14.9856,-112.6715 4.4615,-13.3377 13.512,-31.3214 15.7656,-31.3267 1.2223,0 32.7448,21.2414 32.7448,22.0681 0,0.4149 -1.7723,3.8315 -3.9384,7.5923 -46.732,81.134 47.6613,173.0634 127.8681,124.5305 92.3007,-55.8509 29.9365,-196.1693 -74.4981,-167.6198 -1.9403,0.5304 -14.8289,-36.50888 -13.2526,-38.08518 4.2504,-4.2504 42.671,-6.9021 59.1948,-4.0855 32.9122,5.6101 54.3756,18.45988 83.1262,49.76638 30.0687,32.7416 74.7763,-10.8398 46.7506,-45.57288 -46.6175,-57.77432 -126.4652,-84.1512 -198.6605,-65.6254 -4.3505,1.11628 -8.4381,2.02968 -9.0835,2.02968 -1.0753,0 -13.1879,-37.67768 -12.3631,-38.45708 0.1961,-0.1854 5.8511,-1.7153 12.5666,-3.3997 151.2521,-37.9372 297.7055,76.1665 297.5907,231.85678 -0.1053,142.798 -124.1214,253.998203 -265.3008,237.884503 z"
         id="path8" />
      <path
         style="fill:#40a850;fill-opacity:1;stroke:#265a34;stroke-width:12.5;stroke-dasharray:none;stroke-opacity:1"
         d="m 1200.3581,-63.421917 c -142.9445,-15.122 -240.22006,-150.332803 -209.14266,-290.703303 28.74276,-129.8254 161.23116,-211.71528 290.70276,-179.68048 5.5132,1.3641 10.1911,2.6473 10.3954,2.8516 0.2042,0.2042 -2.0653,8.8641 -5.0435,19.2441 -6.2375,21.74028 -4.1166,19.95758 -19.6729,16.53618 -54.4525,-11.97598 -113.0833,0.9665 -158.3514,34.95542 -16.8262,12.6338 -37.1405,34.0844 -42.8181,45.21338 -10.0216,19.6439 8.472,45.2029 32.6695,45.1505 12.2926,-0.027 14.9268,-1.7811 30.7523,-20.4827 25.0496,-29.6019 68.7326,-47.15478 107.5057,-43.19848 13.7119,1.3992 26.4665,4.1711 25.9066,5.6302 -0.233,0.6071 -2.7944,9.46918 -5.6921,19.69358 l -5.2685,18.5899 -4.3146,-1.2985 c -51.9578,-15.637 -109.6481,24.2819 -115.2405,79.7408 -7.8815,78.1589 77.9563,129.5079 143.7708,86.0052 40.0326,-26.4612 52.411,-84.3502 26.6484,-124.6237 -2.04,-3.1889 -3.3398,-6.1371 -2.8886,-6.5515 2.0286,-1.8627 31.7076,-21.9875 32.4261,-21.9875 1.31,0 8.8115,13.2837 13.039,23.0895 15.967,37.0359 13.0666,82.8564 -7.3461,116.0526 -14.0635,22.8708 -14.3474,34.4395 -1.1686,47.6183 17.7329,17.7329 38.4806,15.2741 52.7987,-6.2571 42.061,-63.2507 41.8437,-151.9823 -0.5245,-214.1066 l -2.7984,-4.1034 7.1971,-4.9742 c 3.9585,-2.7358 11.5435,-7.98168 16.8556,-11.65738 l 9.6584,-6.6831 5.6558,8.7607 c 107.5581,166.60608 -28.5579,388.032683 -225.7117,367.175983 z"
         id="path7" />
    </g>
    <text
       xml:space="preserve"
       style="font-style:normal;font-variant:normal;font-weight:bold;font-stretch:normal;font-size:155.001px;line-height:1.25;font-family:Rubik;-inkscape-font-specification:'Rubik, Bold';font-variant-ligatures:normal;font-variant-caps:normal;font-variant-numeric:normal;font-variant-east-asian:normal;text-align:center;text-anchor:middle;stroke-width:3.04347"
       x="434.04102"
       y="-1164.1022"
       id="text185"><tspan
         sodipodi:role="line"
         id="tspan185"
         x="434.04102"
         y="-1164.1022"
         style="font-style:normal;font-variant:normal;font-weight:bold;font-stretch:normal;font-size:155.001px;font-family:Rubik;-inkscape-font-specification:'Rubik, Bold';font-variant-ligatures:normal;font-variant-caps:normal;font-variant-numeric:normal;font-variant-east-asian:normal;stroke-width:3.04347">KOSTEM</tspan></text>
  </g>
</svg>
